<svg width="54" height="47" viewBox="0 0 54 47" fill="none" xmlns="http://www.w3.org/2000/svg">
<path d="M48.9021 0H5.09805C2.28688 0 0 2.16131 0 4.8179V32.3042C0 34.9614 2.28688 37.1232 5.09795 37.1232H19.5464C19.4163 39.7808 18.9131 42.3568 18.0459 44.805H14.5161C13.8749 44.805 13.3548 45.2964 13.3548 45.9025C13.3548 46.5086 13.8749 47 14.5161 47H39.4839C40.1251 47 40.6452 46.5086 40.6452 45.9025C40.6452 45.2964 40.1251 44.805 39.4839 44.805H35.9541C35.0869 42.3566 34.5837 39.7806 34.4536 37.1232H48.9019C51.7131 37.1232 54 34.9614 54 32.3042V4.8179C54.0001 2.16131 51.7132 0 48.9021 0ZM2.32253 4.8179C2.32253 3.37165 3.5677 2.1949 5.09795 2.1949H48.9019C50.4324 2.1949 51.6775 3.37155 51.6775 4.8179V29.882H2.32253V4.8179ZM20.4866 44.8051C21.2874 42.3429 21.7519 39.7689 21.8725 37.1233H32.1276C32.2483 39.7686 32.7128 42.3426 33.5135 44.8051H20.4866ZM51.6777 32.3043H51.6776C51.6776 33.7512 50.4324 34.9284 48.9021 34.9284H5.09805C3.5677 34.9284 2.32264 33.7512 2.32264 32.3043V32.0771H51.6777V32.3043Z" fill="white"/>
</svg>
